<?xml version="1.0" encoding="UTF-8"?>
<svg id="Layer_2" data-name="Layer 2" xmlns="http://www.w3.org/2000/svg" viewBox="0 0 255 255">
  <defs>
    <style>
      .cls-1 {
        fill: #191b21;
      }

      .cls-1, .cls-2 {
        stroke-width: 0px;
      }

      .cls-2 {
        fill: #21d37e;
      }
    </style>
  </defs>
  <g id="Layer_1-2" data-name="Layer 1">
    <circle class="cls-2" cx="127.5" cy="127.5" r="127.5"/>
    <g>
      <path class="cls-1" d="M128.12,208.4c-.43-.37-.78-.64-1.09-.95-6.83-6.81-13.61-13.66-20.5-20.41-1.27-1.24-.52-1.77.3-2.58,10.32-10.29,20.63-20.58,30.95-30.88,15.68-15.65,31.37-31.29,47.01-46.98,1.31-1.31,1.97-1.52,3.41-.07,16.03,16.13,32.14,32.19,48.28,48.21,1.24,1.24,1.46,1.87.08,3.21-6.65,6.47-13.19,13.04-19.7,19.64-1.17,1.18-1.8,1.32-3.05.05-8.48-8.59-17.08-17.06-25.57-25.64-1.36-1.37-2.07-1.54-3.54-.06-18.28,18.36-36.63,36.65-54.97,54.95-.51.51-1.05,1-1.6,1.51Z"/>
      <path class="cls-1" d="M68.29,150.6c-.44.41-.93.85-1.4,1.32-8.55,8.53-17.12,17.02-25.6,25.61-1.29,1.31-1.92,1.31-3.21,0-6.49-6.63-13.07-13.16-19.68-19.66-1.13-1.11-1.29-1.7-.06-2.92,16.3-16.18,32.54-32.41,48.76-48.66,1.07-1.07,1.64-1.16,2.76-.04,16.27,16.31,32.57,32.59,48.91,48.83,1.12,1.11,1.05,1.68-.03,2.75-6.72,6.61-13.4,13.25-19.99,19.98-1.24,1.27-1.83.99-2.91-.1-8.6-8.67-17.27-17.29-25.92-25.91-.45-.45-.81-1.08-1.64-1.18Z"/>
      <path class="cls-1" d="M127.51,91.52c-.54.5-1.04.92-1.5,1.38-8.55,8.53-17.13,17.01-25.59,25.62-1.47,1.5-2.22,1.32-3.58-.07-6.44-6.57-12.96-13.07-19.54-19.5-1.21-1.18-1.12-1.74.03-2.88,16.24-16.13,32.45-32.3,48.6-48.52,1.32-1.33,1.96-1.23,3.23.04,16.1,16.17,32.26,32.28,48.44,48.37,1.17,1.16,1.37,1.8.07,3.07-6.69,6.53-13.3,13.14-19.85,19.8-1.14,1.15-1.73,1.2-2.9.02-8.59-8.69-17.26-17.29-25.91-25.92-.46-.46-.95-.89-1.49-1.4Z"/>
    </g>
  </g>
</svg>