<?xml version="1.0" encoding="UTF-8"?>
<svg id="Layer_2" data-name="Layer 2" xmlns="http://www.w3.org/2000/svg" viewBox="0 0 500 94.42">
  <defs>
    <style>
      .cls-1 {
        fill: #181a20;
      }

      .cls-1, .cls-2, .cls-3, .cls-4 {
        stroke-width: 0px;
      }

      .cls-2 {
        fill: #191b21;
      }

      .cls-3 {
        fill: #21d37e;
      }

      .cls-4 {
        fill: #1a1c22;
      }
    </style>
  </defs>
  <g id="Layer_1-2" data-name="Layer 1">
    <path class="cls-3" d="M64.55,94.42c-.25-.22-.45-.37-.63-.56-3.98-3.97-7.94-7.97-11.96-11.91-.74-.72-.3-1.03.17-1.51,6.02-6,12.04-12.01,18.06-18.02,9.15-9.13,18.31-18.26,27.43-27.42.76-.77,1.15-.89,1.99-.04,9.36,9.41,18.75,18.78,28.17,28.13.73.72.85,1.09.05,1.88-3.88,3.77-7.7,7.61-11.5,11.46-.68.69-1.05.77-1.78.03-4.95-5.01-9.97-9.95-14.92-14.96-.79-.8-1.21-.9-2.07-.03-10.67,10.72-21.38,21.38-32.08,32.06-.3.3-.61.58-.93.88Z"/>
    <path class="cls-1" d="M259.6,60.38c-2.53,3.01-4.97,5.94-7.44,8.85-.38.45-.33.95-.33,1.46,0,3.05-.02,6.1.02,9.14.01.76-.14,1.04-.98,1.02-2.71-.06-5.42-.05-8.13,0-.81.02-.99-.22-.99-1,.02-23.48.02-46.96,0-70.44,0-.93.36-1.02,1.12-1.01,2.58.04,5.16.07,7.74-.01,1.06-.04,1.24.34,1.24,1.29-.03,14.21-.02,28.42-.02,42.62v1.72c2.46-2.93,4.67-5.58,6.89-8.23,3.5-4.17,7-8.35,10.49-12.52.34-.41.65-.74,1.26-.74,3.96.02,7.91.01,11.87.02.11,0,.22.07.48.16-1.64,1.96-3.22,3.86-4.8,5.74-3.64,4.33-7.27,8.68-10.94,12.99-.53.63-.42,1.05-.05,1.68,5.14,8.8,10.26,17.62,15.37,26.44.21.36.4.73.69,1.27-3.82,0-7.45,0-11.09,0-.71,0-.79-.57-1.03-.98-3.65-6.25-7.29-12.51-10.93-18.77-.11-.18-.22-.36-.44-.71Z"/>
    <path class="cls-2" d="M326.43,67.52c-3.65,7.28-9.01,12.34-17.01,14.04-15.24,3.24-27.38-8.52-28.83-21.2-1.15-10.01,1.97-18.43,10.1-24.55,11.62-8.75,28.08-4.77,34.75,8.16,2.42,4.69,3.41,9.65,3.14,14.91-.05,1.03-.35,1.35-1.42,1.35-11.56-.04-23.12,0-34.69-.06-1.26,0-1.36.3-1.06,1.41,2.48,9.15,12.39,13.32,20.11,8.42,1.69-1.07,3.07-2.47,4.18-4.13.22-.33.33-.79.96-.64,3.2.77,6.41,1.5,9.76,2.28ZM304.47,52.51c4.3,0,8.6,0,12.9,0,.42,0,.97.21.81-.66-1.25-6.74-7.93-13.18-16.12-11.52-6.15,1.25-9.48,5.42-11.1,11.22-.24.86.09.98.87.98,4.21-.03,8.43-.02,12.64-.02Z"/>
    <path class="cls-2" d="M405.11,54.72c.48-8.75,4.95-16.97,14.76-21.48,10.38-4.78,21.83-1.36,28.74,8.11,7.68,10.52,6.14,25.77-3.46,34.52-11.07,10.08-28.05,7.63-36.08-5.18-2.72-4.34-3.98-9.06-3.95-15.97ZM415.16,56.29c.02,3.09.58,5.65,1.87,8.05,4.64,8.66,15.53,10.36,22.06,3.42,5.67-6.03,5.78-15.73.24-21.9-5.18-5.77-13.29-6.25-19.06-1.07-3.51,3.16-5.06,7.23-5.11,11.5Z"/>
    <path class="cls-2" d="M239.45,56.66c.01,10.39-6.03,19.74-15.26,23.65-10.43,4.42-22.3.62-28.88-9.23-8.82-13.21-3.54-31.66,10.9-38.06,11.2-4.97,24.32.02,30.34,11.52,1.99,3.8,2.9,7.85,2.9,12.12ZM229.38,57.91c.03-4.57-.92-7.67-2.84-10.48-5.03-7.36-15-8.34-20.93-2.05-5.87,6.22-5.99,15.85-.28,22.21,4.86,5.42,13.01,6.01,18.54,1.28,3.71-3.17,5.43-7.29,5.52-10.95Z"/>
    <path class="cls-3" d="M29.64,60.69c-.26.24-.54.5-.81.77-4.99,4.97-9.99,9.93-14.94,14.95-.75.77-1.12.76-1.87,0-3.79-3.87-7.62-7.68-11.48-11.47-.66-.65-.75-.99-.04-1.7,9.51-9.44,18.99-18.91,28.46-28.4.62-.62.96-.68,1.61-.02,9.49,9.52,19.01,19.02,28.54,28.49.65.65.61.98-.02,1.6-3.92,3.86-7.82,7.73-11.67,11.66-.73.74-1.07.58-1.7-.06-5.02-5.06-10.08-10.09-15.13-15.12-.27-.26-.47-.63-.96-.69Z"/>
    <path class="cls-3" d="M64.2,26.21c-.31.29-.6.54-.87.81-4.99,4.97-10,9.93-14.94,14.95-.86.88-1.3.77-2.09-.04-3.76-3.83-7.56-7.62-11.4-11.38-.7-.69-.65-1.02.02-1.68C44.39,19.46,53.85,10.02,63.27.56c.77-.77,1.14-.72,1.88.02,9.4,9.43,18.82,18.84,28.27,28.22.68.68.8,1.05.04,1.79-3.9,3.81-7.76,7.67-11.59,11.56-.66.67-1.01.7-1.69.01-5.01-5.07-10.07-10.09-15.12-15.13-.27-.27-.55-.52-.87-.82Z"/>
    <path class="cls-2" d="M466.51,37.57c2.75-2.91,5.73-4.8,9.29-5.77,11.75-3.2,23.94,5.73,24.12,17.87.15,10.08.03,20.17.05,30.25,0,.73-.19.94-.92.93-2.66-.04-5.33-.07-7.99,0-1,.03-1.19-.29-1.18-1.22.04-8.84.03-17.68.02-26.52,0-5.99-4.37-11.06-10.02-11.69-6.26-.69-11.68,3.06-13.09,9.06-.26,1.09-.28,2.21-.28,3.32,0,8.54-.02,17.08.02,25.62,0,1.06-.14,1.49-1.36,1.44-2.57-.12-5.16-.07-7.74-.02-.79.02-1.01-.2-1.01-1,.02-15.45.02-30.89,0-46.34,0-.67.11-1.01.9-.99,2.75.04,5.5.04,8.25,0,.75-.01.96.24.94.96-.05,1.24-.01,2.48-.01,4.09Z"/>
    <path class="cls-4" d="M341.68,37.56c3.92-4.23,8.49-6.3,13.91-6.39,10.6-.18,19.39,8.3,19.51,18.94.11,9.91.01,19.82.04,29.73,0,.77-.17,1.02-.98,1.01-2.66-.06-5.33-.06-7.99,0-.92.02-1.13-.26-1.12-1.15.03-8.84.03-17.68.02-26.52,0-5.8-3.88-10.57-9.45-11.69-5.36-1.07-10.84,1.9-13.08,7.09-.68,1.57-.84,3.21-.84,4.9,0,8.67-.01,17.33.03,26,0,1.04-.2,1.4-1.31,1.36-2.62-.09-5.24-.05-7.86-.01-.73.01-.93-.2-.93-.93.02-15.45.02-30.89,0-46.34,0-.88.28-1.08,1.1-1.06,2.66.04,5.33.04,7.99,0,.8-.01,1.05.24,1.01,1.02-.06,1.23-.02,2.46-.02,4.03Z"/>
    <path class="cls-2" d="M174.89,52.2c0,9.14-.02,18.28.03,27.43,0,1.08-.36,1.24-1.3,1.22-2.49-.06-4.99-.08-7.48,0-1.07.04-1.34-.25-1.34-1.33.04-13.78.03-27.55.03-41.33,0-4.42-.05-8.84.03-13.26.02-1.28-.23-1.72-1.64-1.7-6.23.09-12.47.02-18.7.06-.92,0-1.26-.16-1.23-1.18.09-2.62.05-5.24.01-7.85-.01-.72.08-1.06.95-1.05,17.11.03,34.22.03,51.34,0,.77,0,.92.27.91.96-.04,2.66-.05,5.32,0,7.98.02.89-.22,1.15-1.13,1.14-6.36-.04-12.73,0-19.09-.05-1.13,0-1.44.25-1.43,1.41.05,9.18.03,18.37.03,27.55Z"/>
    <path class="cls-2" d="M400.29,19.05c-2.5-2.29-4.97-2.36-6.85-.27-.76.85-1.06,1.84-1.07,2.95,0,3.26.04,6.53-.03,9.79-.02.93.36,1.04,1.13,1.03,3.78-.03,7.57.02,11.35-.04.95-.01,1.25.2,1.22,1.19-.08,2.57-.08,5.15,0,7.72.03,1.03-.33,1.18-1.24,1.17-3.65-.05-7.31.02-10.96-.05-1.13-.02-1.51.22-1.51,1.45.05,11.85.01,23.69.06,35.54,0,1.1-.3,1.34-1.35,1.3-2.45-.08-4.9-.08-7.35,0-1.09.04-1.43-.19-1.43-1.37.05-11.8.01-23.61.07-35.41,0-1.26-.31-1.64-1.55-1.51-1.11.11-2.23,0-3.35.04-.66.03-.9-.16-.89-.86.04-2.79.04-5.58,0-8.37,0-.71.25-.87.9-.85,1.29.04,2.58-.04,3.87.03.79.04,1.02-.2,1.01-1-.04-3.39-.11-6.78,0-10.17.2-5.82,2.92-10.21,8.16-12.72,5.19-2.49,10.27-1.88,14.94,1.54,2.1,1.54,2.06,1.57.28,3.35-1.82,1.82-3.62,3.67-5.42,5.51Z"/>
  </g>
</svg>